<svg width="663" height="893" viewBox="0 0 663 893" fill="none" xmlns="http://www.w3.org/2000/svg">
<g clip-path="url(#clip0)">
<path d="M0 60C0 26.8629 26.8629 0 60 0H603C636.137 0 663 26.8629 663 60V833C663 866.137 636.137 893 603 893H60C26.8629 893 0 866.137 0 833V60Z" fill="white"/>
<rect x="-4" width="670" height="893" rx="60" fill="#FFAF02" fill-opacity="0.46"/>
<path d="M313.987 146.981L242.603 130.115C240.784 129.685 238.877 130.306 237.66 131.724L207.384 166.989C206.434 168.096 205.049 168.732 203.59 168.732H168.229C166.131 168.732 164.256 170.043 163.534 172.013L146.444 218.673C146.015 219.843 145.165 220.811 144.061 221.387L103.434 242.575C101.878 243.386 100.862 244.954 100.755 246.706L98.1925 289.004C98.1657 289.446 98.0803 289.882 97.9386 290.302L87.2242 322.016C87.1117 322.349 87.0346 322.693 86.9942 323.042L73.4485 440.186V498.718V519.99C73.4485 522.309 71.8537 524.324 69.5966 524.857L65.3154 525.867C62.5463 526.52 59.7909 524.734 59.2563 521.94L57.2225 511.307C57.0762 510.542 57.1105 509.753 57.3227 509.004L59.8426 500.109C60.1001 499.201 60.0948 498.238 59.8276 497.332L57.3168 488.822C57.1082 488.114 57.0585 487.37 57.1713 486.642L60.2367 466.845L62.3972 453.357C62.4972 452.733 62.4779 452.095 62.3403 451.478L57.1468 428.187C57.0494 427.75 57.0111 427.301 57.033 426.854L58.3872 399.16L60.5814 382.155C60.6592 381.552 60.6264 380.941 60.4847 380.35L57.2751 366.963C57.0942 366.208 57.0914 365.422 57.267 364.666L62.3231 342.897C62.472 342.256 62.4929 341.592 62.3847 340.943L59.6269 324.406C59.4241 323.189 59.6778 321.941 60.3392 320.901L63.9905 315.157C64.8299 313.836 65.0027 312.199 64.4577 310.733L62.7336 306.093C62.6106 305.762 62.523 305.419 62.4723 305.07L60.4325 291.018C60.3043 290.135 60.4147 289.234 60.7524 288.408L64.6447 278.887C65.0832 277.814 65.1355 276.622 64.7927 275.515L63.2417 270.507C62.8043 269.095 63.0428 267.56 63.888 266.347C64.7868 265.057 64.9962 263.409 64.4486 261.935L63.4602 259.276C62.8892 257.739 63.1076 256.02 64.0448 254.675L65.2885 252.89C66.1839 251.605 66.4255 249.975 65.9411 248.486L60.6447 232.198C60.3773 231.375 60.3277 230.498 60.5009 229.65L64.9135 208.062C65.1759 206.778 65.9318 205.649 67.0184 204.916L71.2422 202.071C72.6215 201.141 73.4485 199.587 73.4485 197.924V187.813C73.4485 185.193 75.4708 183.017 78.0837 182.826L82.4197 182.509C85.0326 182.318 87.0549 180.142 87.0549 177.522V166.267C87.0549 163.506 89.2935 161.267 92.0549 161.267H93.5243C96.136 161.267 98.3078 159.257 98.5094 156.653L99.1821 147.965C99.3837 145.361 101.555 143.351 104.167 143.351H108.411C111.172 143.351 113.411 141.112 113.411 138.351V132.98C113.411 129.84 116.271 127.477 119.355 128.069L120.414 128.273C123.497 128.866 126.358 126.503 126.358 123.363V115.006C126.358 112.244 128.596 110.006 131.358 110.006H142.425C144.453 110.006 146.281 108.781 147.051 106.905L152.43 93.8011C153.566 91.0344 156.86 89.877 159.477 91.3254L166.099 94.9913C168.619 96.3861 171.793 95.3692 173.034 92.7697L178.173 81.9964C179.003 80.257 180.759 79.1493 182.686 79.1493H196.772C199.124 79.1493 201.158 77.5101 201.658 75.2117L204.49 62.1869C205.192 58.9556 208.782 57.2841 211.707 58.8263L222.308 64.4151C225.356 66.0216 229.077 64.1375 229.585 60.7305L231.645 46.9345C232.16 43.4911 235.948 41.6141 238.999 43.2911L250.427 49.5725C252.697 50.8202 255.544 50.1276 256.988 47.9767L261.612 41.0857C263.761 37.8819 268.576 38.2168 270.261 41.6873L273.429 48.2101C275.084 51.6176 279.779 52.0189 281.988 48.9418L292.09 34.8709C292.567 34.2072 293.199 33.6703 293.931 33.3073L346.307 7.33676C350.291 5.36155 354.678 9.17894 353.272 13.3972L347.018 32.1613C346.652 33.2597 346.679 34.4511 347.093 35.5321L354.461 54.7496C355.718 58.0281 359.874 59.0238 362.48 56.6709L376.172 44.3099C378.649 42.0731 382.581 42.8455 384.028 45.8533L391.618 61.6299C393.073 64.6531 397.033 65.4144 399.505 63.1458L420.268 44.0889C422.64 41.9126 426.419 42.5108 428.003 45.313L444.15 73.8939C445.692 76.623 449.336 77.2767 451.73 75.2538L463.242 65.5283C465.666 63.4799 469.361 64.1796 470.868 66.9726L486.725 96.3483C487.154 97.1436 487.791 97.8077 488.568 98.27L507.104 109.302C507.878 109.763 508.513 110.424 508.942 111.215L516.409 124.987C517.079 126.223 518.239 127.119 519.604 127.457L535.567 131.406L554.018 134.808C556.004 135.174 557.576 136.7 558 138.676L561.005 152.676C561.296 154.029 562.134 155.202 563.321 155.914L574.788 162.797C576.294 163.7 577.215 165.328 577.215 167.084V180.234C577.215 182.044 578.194 183.713 579.773 184.597L587.108 188.701C588.688 189.585 589.666 191.254 589.666 193.064V205.013C589.666 205.377 589.706 205.74 589.785 206.096L594.083 225.468L597.012 245.514C597.047 245.753 597.064 245.995 597.064 246.237V263.79L604 463.361V522.611C604 527.676 597.302 529.482 594.755 525.104C594.315 524.347 594.083 523.487 594.083 522.611V440.186L571.864 283.827C571.714 282.773 571.231 281.794 570.486 281.033L526.88 236.492C526.509 236.113 526.2 235.677 525.966 235.201L497.679 177.691C497.356 177.035 496.894 176.458 496.325 176L461.866 148.3C461.081 147.67 460.124 147.29 459.12 147.212L410.126 143.412C409.603 143.371 409.089 143.249 408.604 143.048L371.397 127.681C370.224 127.197 368.911 127.176 367.724 127.624L316.901 146.793C315.97 147.144 314.955 147.21 313.987 146.981Z" fill="url(#paint0_linear)"/>
<path d="M284.61 326.922L178.565 305.614C178.19 305.538 177.807 305.517 177.426 305.551L76.5018 314.456C76.1686 314.485 75.8404 314.556 75.5249 314.667L43.1715 326.059C41.5708 326.623 40.5 328.135 40.5 329.832V367.74C40.5 368.862 40.9706 369.931 41.7971 370.689L57.6952 385.262C58.2221 385.745 58.6099 386.361 58.8184 387.044L70.867 426.564C70.9554 426.854 71.0764 427.133 71.2277 427.395L94.6487 468.023C95.1926 468.967 96.0976 469.648 97.1548 469.909L137.527 479.883C137.841 479.961 138.163 480 138.487 480H174.436C174.81 480 175.182 479.948 175.542 479.844L211.221 469.58C211.407 469.527 211.589 469.46 211.765 469.38L237.13 457.894C237.702 457.635 238.205 457.245 238.598 456.755L262.5 427L298.319 371.335C299.055 370.191 300.322 369.5 301.683 369.5H351.377C352.97 369.5 354.411 370.445 355.046 371.905L379 427L392.032 448.72C392.34 449.233 392.76 449.671 393.259 450.001L415.569 464.716C415.855 464.904 416.164 465.056 416.489 465.166L448.099 475.864C448.366 475.954 448.641 476.016 448.921 476.049L483 480H524.692C525.225 480 525.753 479.893 526.244 479.687L553.278 468.304C553.755 468.103 554.188 467.812 554.554 467.446L571.815 450.185C572.265 449.735 572.601 449.184 572.796 448.578L581 423L591.089 387.929C591.354 387.007 591.942 386.211 592.744 385.687L615.689 370.684C616.819 369.945 617.5 368.686 617.5 367.336V329.875C617.5 328.157 616.403 326.631 614.775 326.083L563.121 308.709C562.71 308.57 562.279 308.5 561.845 308.5H432.523C432.176 308.5 431.83 308.545 431.494 308.635L363.006 326.865C362.67 326.955 362.324 327 361.977 327H285.398C285.133 327 284.869 326.974 284.61 326.922Z" fill="#FBEAC5"/>
<path d="M101.809 329.929L96.0829 332.145C92.0898 333.691 88.5416 336.201 85.7551 339.452C82.6456 343.08 80.5988 347.497 79.8406 352.214L77.3235 367.876C76.7754 371.287 76.5 374.735 76.5 378.19V392L79.0816 412.079C80.3439 421.897 83.8315 431.296 89.2787 439.561L90.9752 442.135C93.9776 446.69 97.5906 450.812 101.713 454.385C107.517 459.414 114.273 463.288 121.54 465.77C127.783 467.902 134.366 469 140.964 469H155H166.74C172.554 469 178.341 468.22 183.947 466.681L195.543 463.498C199.174 462.501 202.712 461.191 206.116 459.581L216.466 454.689C224.406 450.935 231.503 445.611 237.329 439.039L248 427L262.765 407.572C265.58 403.868 267.99 399.873 269.952 395.654L277 380.5L280.872 370.691C283.191 364.817 283.024 358.254 280.411 352.505C278.204 347.649 274.397 343.699 269.626 341.313L266.269 339.634C264.758 338.879 263.194 338.238 261.588 337.716L248.846 333.575C245.62 332.527 242.317 331.732 238.968 331.199L222 328.5L195.465 323.939C191.828 323.314 188.145 323 184.455 323H149H137.93C133.323 323 128.729 323.49 124.226 324.461L109.369 327.666C106.794 328.221 104.266 328.978 101.809 329.929Z" fill="#FFAF02" fill-opacity="0.46"/>
<path d="M396.97 329.28L391.724 331.341C388.925 332.44 386.317 333.972 383.993 335.88C377.35 341.337 373.5 349.482 373.5 358.079V359.5V366.099C373.5 371.018 374.058 375.92 375.165 380.713L376.792 387.766C377.596 391.249 378.686 394.661 380.051 397.965L387.5 416L390.357 420.962C394.729 428.556 400.76 435.064 408 440L423.5 451L441.5 460.5L447.377 462.851C455.055 465.922 463.249 467.5 471.518 467.5H484.5H516H519.673C529.067 467.5 538.304 465.09 546.5 460.5C555.554 454.356 562.203 445.27 565.321 434.783L566 432.5L571 411.5L577.784 394.201C579.909 388.782 581 383.012 581 377.191C581 370.799 579.685 364.475 577.136 358.613L573.592 350.461C571.876 346.514 569.519 342.878 566.617 339.7C562.593 335.292 557.611 331.865 552.056 329.683L546.5 327.5L529 322.5L510.322 319.069C506.449 318.358 502.519 318 498.58 318H484.5H469.5H452.799C448.609 318 444.43 318.405 440.318 319.209L423.5 322.5L406.246 326.421C403.087 327.139 399.986 328.095 396.97 329.28Z" fill="#FFAF02" fill-opacity="0.46"/>
<path d="M87.1069 554.567L76.5711 529.577C75.9127 528.015 74.3827 527 72.6878 527C71.2617 527 69.9323 527.721 69.1548 528.917L58.1297 545.87C57.4064 546.982 57.1548 548.336 57.4303 549.634L70.4013 610.742L83.1497 646.165C83.2765 646.517 83.3634 646.882 83.4086 647.254L87.4996 680.893L94.2221 716.719C94.3797 717.559 94.7501 718.345 95.2979 719.001L111.196 738.046C111.448 738.347 111.663 738.678 111.838 739.03L120.714 756.951C121.056 757.641 121.234 758.401 121.234 759.17V787.995C121.234 789.813 122.222 791.489 123.813 792.369L138.241 800.353C139.516 801.059 140.42 802.286 140.716 803.713L144.512 822.032C144.993 824.353 147.037 826.018 149.408 826.018H163.463C166.224 826.018 168.463 828.256 168.463 831.018V839.75C168.463 841.462 169.339 843.056 170.785 843.973L182.759 851.563C183.962 852.326 185.434 852.54 186.804 852.15L201.681 847.918C202.638 847.646 203.656 847.665 204.602 847.974L248.071 862.177C248.54 862.331 248.983 862.552 249.386 862.835L266.123 874.555C267.421 875.464 269.073 875.704 270.576 875.201L307.001 863.027C308.192 862.629 309.488 862.694 310.634 863.208L337.122 875.101C338.398 875.674 339.857 875.686 341.143 875.134L369.18 863.094C370.214 862.65 371.367 862.567 372.453 862.86L403.548 871.232C404.478 871.482 405.46 871.459 406.377 871.164L432.438 862.789C433.217 862.539 434.044 862.484 434.849 862.628L456.058 866.424C457.375 866.66 458.731 866.358 459.823 865.587L476.69 853.678C477.534 853.082 478.541 852.763 479.574 852.763H498.825C499.992 852.763 501.122 852.355 502.019 851.61L518.548 837.888C518.924 837.576 519.252 837.21 519.522 836.803L534.103 814.797C534.234 814.599 534.351 814.392 534.453 814.178L543.274 795.582C543.457 795.196 543.689 794.834 543.965 794.507L561.088 774.144C561.446 773.718 561.731 773.234 561.93 772.714L574.76 739.207C574.94 738.738 575.047 738.245 575.08 737.744L577.768 696.5L583.811 660.286L595.364 620.704L601.275 580.703C601.339 580.27 601.459 579.848 601.633 579.447L610.995 557.821C611.627 556.361 611.526 554.687 610.724 553.314L600.493 535.787C598.4 532.201 593.101 532.581 591.541 536.429L583.811 555.499L575.031 580.052L561.63 610.742L550.762 640.026C550.321 641.212 549.448 642.187 548.316 642.755L526.9 653.5L514.044 659.078C512.333 659.82 510.35 659.548 508.902 658.372L494.936 647.028C494.663 646.807 494.414 646.556 494.193 646.282L487.904 638.468C487.393 637.832 487.044 637.081 486.89 636.28L484.582 624.306C484.169 622.162 482.413 620.535 480.244 620.285L472.258 619.365C470.324 619.142 468.696 617.818 468.084 615.971L465.164 607.161C464.718 605.813 463.719 604.718 462.417 604.151L454.364 600.638C453.412 600.223 452.612 599.522 452.077 598.632L448.606 592.858C447.565 591.127 445.586 590.193 443.589 590.488L432.647 592.108C431.679 592.251 430.69 592.108 429.803 591.694L415.811 585.174C415.562 585.058 415.324 584.922 415.098 584.767L402.84 576.374C402.008 575.805 401.023 575.5 400.015 575.5H383.356C382.555 575.5 381.766 575.308 381.056 574.939L366.415 567.353C365.353 566.803 364.128 566.651 362.964 566.927L349.799 570.04C348.585 570.327 347.308 570.15 346.218 569.544L335.616 563.649C334.322 562.929 332.777 562.82 331.395 563.35L308.853 572L290.145 579.479C289.212 579.852 288.188 579.935 287.206 579.718L269.137 575.711C268.509 575.572 267.861 575.555 267.227 575.661L243.106 579.711C241.805 579.929 240.643 580.652 239.873 581.723L227.514 598.919C227.005 599.627 226.32 600.19 225.526 600.552L205.414 609.711C203.988 610.361 202.949 611.641 202.607 613.171L198.626 630.978C198.273 632.56 197.174 633.872 195.678 634.499L179.209 641.397C178.463 641.709 177.805 642.197 177.289 642.819L164.324 658.476C163.374 659.623 161.962 660.286 160.473 660.286H135.804C135.335 660.286 134.869 660.22 134.418 660.09L114.246 654.271C112.585 653.791 111.29 652.488 110.82 650.824L108.483 642.538C108.358 642.096 108.295 641.639 108.295 641.18V630.297C108.295 629.135 107.891 628.01 107.151 627.114L103.006 622.09C102.267 621.194 101.862 620.069 101.862 618.908V605.582C101.862 605.224 101.901 604.866 101.977 604.516L103.938 595.534C104.363 593.587 103.591 591.575 101.975 590.41L95.1051 585.463C94.6794 585.156 94.3045 584.784 93.9944 584.361L88.4668 576.82C87.8384 575.962 87.4996 574.927 87.4996 573.864V556.51C87.4996 555.842 87.3661 555.182 87.1069 554.567Z" fill="url(#paint1_linear)" fill-opacity="0.7"/>
<path opacity="0.1" d="M258.795 649.205L256.658 651.342C249.478 658.522 250.982 670.543 259.71 675.733C260.568 676.243 261.473 676.67 262.413 677.007L284.227 684.827C286.393 685.603 288.676 686 290.977 686H333.5H371.532C374.152 686 376.746 685.485 379.167 684.485L398.5 676.5L400.162 675.669C410.227 670.637 412.49 657.268 404.643 649.202C403.226 647.746 401.555 646.562 399.711 645.709L379.497 636.351C376.864 635.131 373.997 634.5 371.095 634.5H333.5H291.98C289.03 634.5 286.116 635.153 283.448 636.411L263.821 645.669C261.954 646.55 260.254 647.746 258.795 649.205Z" fill="white"/>
</g>
<defs>
<linearGradient id="paint0_linear" x1="-51.6602" y1="419.067" x2="681.797" y2="542.463" gradientUnits="userSpaceOnUse">
<stop stop-color="#040404"/>
<stop offset="1" stop-color="#E8E8E8"/>
</linearGradient>
<linearGradient id="paint1_linear" x1="-53.2494" y1="796.829" x2="715.125" y2="682.773" gradientUnits="userSpaceOnUse">
<stop/>
<stop offset="1" stop-color="#E8E8E8"/>
</linearGradient>
<clipPath id="clip0">
<path d="M0 60C0 26.8629 26.8629 0 60 0H603C636.137 0 663 26.8629 663 60V833C663 866.137 636.137 893 603 893H60C26.8629 893 0 866.137 0 833V60Z" fill="white"/>
</clipPath>
</defs>
</svg>
