<svg width="400" height="400" viewBox="0 0 400 400" fill="none" xmlns="http://www.w3.org/2000/svg">
<g clip-path="url(#clip0_617_1434)">
<g filter="url(#filter0_d_617_1434)">
<rect x="249" y="223.833" width="59.8" height="23" rx="11.5" fill="url(#paint0_linear_617_1434)"/>
</g>
<rect x="249" y="264.833" width="31.4419" height="12.093" rx="6.04652" fill="url(#paint1_linear_617_1434)" fill-opacity="0.2"/>
<rect x="234" y="315.833" width="31.4419" height="12.093" rx="6.04652" fill="url(#paint2_linear_617_1434)" fill-opacity="0.2"/>
<rect x="322" y="218.833" width="31.4419" height="12.093" rx="6.04652" fill="url(#paint3_linear_617_1434)" fill-opacity="0.2"/>
<rect x="302" y="192.833" width="31.4419" height="12.093" rx="6.04652" fill="url(#paint4_linear_617_1434)" fill-opacity="0.2"/>
<rect x="342" y="171.833" width="31.4419" height="12.093" rx="6.04652" fill="url(#paint5_linear_617_1434)" fill-opacity="0.2"/>
<rect x="326" y="136.833" width="31.4419" height="12.093" rx="6.04652" fill="url(#paint6_linear_617_1434)" fill-opacity="0.2"/>
<rect x="311" y="257.833" width="31.4419" height="12.093" rx="6.04652" fill="url(#paint7_linear_617_1434)" fill-opacity="0.2"/>
<g filter="url(#filter1_d_617_1434)">
<path d="M225.777 186.718C219.659 206.075 212.832 216.668 209.443 221.129C208.616 222.217 207.153 222.252 206.269 221.201C202.466 216.678 194.659 205.764 188.742 186.72C186.16 173.668 196.374 163.22 207.931 163.22C219.402 163.22 228.377 173.583 225.777 186.718Z" fill="#D23669" fill-opacity="0.2" stroke="url(#paint8_linear_617_1434)" stroke-width="1.825"/>
<circle cx="207.5" cy="182.383" r="10.95" fill="url(#paint9_linear_617_1434)"/>
</g>
<path d="M255.5 159.333C252.129 170.009 248.357 175.872 246.463 178.366C245.815 179.219 244.632 179.245 243.943 178.424C241.818 175.898 237.501 169.852 234.236 159.333C232.736 151.833 238.609 145.833 245.236 145.833C251.864 145.833 257 151.833 255.5 159.333Z" fill="#D23669" fill-opacity="0.2"/>
<path d="M196.5 231.333C193.129 242.009 189.357 247.872 187.463 250.366C186.815 251.219 185.632 251.245 184.943 250.424C182.818 247.898 178.501 241.852 175.236 231.333C173.736 223.833 179.609 217.833 186.236 217.833C192.864 217.833 198 223.833 196.5 231.333Z" fill="#D23669" fill-opacity="0.2"/>
<path d="M191.5 278.333C188.129 289.009 184.357 294.872 182.463 297.366C181.815 298.219 180.632 298.245 179.943 297.424C177.818 294.898 173.501 288.852 170.236 278.333C168.736 270.833 174.609 264.833 181.236 264.833C187.864 264.833 193 270.833 191.5 278.333Z" fill="#D23669" fill-opacity="0.2"/>
<path d="M275.5 119.333C272.129 130.009 268.357 135.872 266.463 138.366C265.815 139.219 264.632 139.245 263.943 138.424C261.818 135.898 257.501 129.852 254.236 119.333C252.736 111.833 258.609 105.833 265.236 105.833C271.864 105.833 277 111.833 275.5 119.333Z" fill="#D23669" fill-opacity="0.2"/>
<path d="M332.527 81.6652L294.308 129.331C290.184 134.474 287.395 140.556 286.189 147.037L281.514 172.171C280.532 177.446 278.5 182.47 275.537 186.944L258.558 212.577C255.892 216.603 252.519 220.112 248.602 222.936L237.325 231.066C234.472 233.123 231.359 234.795 228.069 236.038L222.986 237.958C214.898 241.014 208.017 246.608 203.375 253.902L194.848 267.303C191.353 272.795 189.251 279.057 188.725 285.545L186.77 309.658C186.608 311.66 186.596 313.671 186.736 315.675L188.456 340.327C189.145 350.2 193.469 359.468 200.594 366.337L217.526 382.665" stroke="url(#paint10_diamond_617_1434)" stroke-opacity="0.2" stroke-width="5" stroke-linecap="round"/>
<path d="M338.5 80.8327L300.281 128.498C296.157 133.641 293.369 139.724 292.163 146.205L287.487 171.339C286.506 176.614 284.473 181.638 281.51 186.111L264.532 211.744C261.866 215.77 258.493 219.28 254.576 222.103L243.299 230.233C240.445 232.291 237.333 233.962 234.042 235.205L228.959 237.126C220.871 240.181 213.991 245.775 209.349 253.07L200.821 266.47C197.326 271.962 195.225 278.224 194.699 284.712L192.743 308.826C192.581 310.827 192.57 312.839 192.71 314.842L194.43 339.495C195.118 349.368 199.443 358.635 206.567 365.505L223.499 381.832" stroke="url(#paint11_diamond_617_1434)" stroke-width="5" stroke-linecap="round"/>
<g filter="url(#filter2_d_617_1434)">
<path d="M18 38.2561C18 34.2487 21.2487 31 25.2561 31H176.183C180.19 31 183.439 34.2487 183.439 38.2561V142.744C183.439 146.751 180.19 150 176.183 150H25.2561C21.2487 150 18 146.751 18 142.744V38.2561Z" fill="url(#paint12_linear_617_1434)" fill-opacity="0.3" shape-rendering="crispEdges"/>
</g>
<g filter="url(#filter3_d_617_1434)">
<path d="M-44 247.256C-44 243.249 -40.7513 240 -36.7439 240H114.183C118.19 240 121.439 243.249 121.439 247.256V351.744C121.439 355.751 118.19 359 114.183 359H-36.7439C-40.7513 359 -44 355.751 -44 351.744V247.256Z" fill="url(#paint13_linear_617_1434)" fill-opacity="0.3" shape-rendering="crispEdges"/>
</g>
<rect x="23.5" y="35.5" width="154" height="70" rx="4.5" fill="#C4C4C4" fill-opacity="0.5" stroke="url(#paint14_linear_617_1434)"/>
<rect x="-38.5" y="244.5" width="154" height="70" rx="4.5" fill="#C4C4C4" fill-opacity="0.5" stroke="url(#paint15_linear_617_1434)"/>
<rect x="23.5" y="113.5" width="80" height="10" rx="4.5" fill="#C4C4C4" fill-opacity="0.9" stroke="url(#paint16_linear_617_1434)"/>
<rect x="-38.5" y="322.5" width="80" height="10" rx="4.5" fill="#C4C4C4" fill-opacity="0.9" stroke="url(#paint17_linear_617_1434)"/>
<rect x="23.5" y="127.5" width="139" height="5" rx="2.5" fill="#C4C4C4" fill-opacity="0.9" stroke="url(#paint18_linear_617_1434)"/>
<rect x="-38.5" y="336.5" width="139" height="5" rx="2.5" fill="#C4C4C4" fill-opacity="0.9" stroke="url(#paint19_linear_617_1434)"/>
<rect x="23.5" y="136.5" width="139" height="5" rx="2.5" fill="#C4C4C4" fill-opacity="0.9" stroke="url(#paint20_linear_617_1434)"/>
<rect x="-38.5" y="345.5" width="139" height="5" rx="2.5" fill="#C4C4C4" fill-opacity="0.9" stroke="url(#paint21_linear_617_1434)"/>
</g>
<defs>
<filter id="filter0_d_617_1434" x="229" y="208.833" width="99.7998" height="63" filterUnits="userSpaceOnUse" color-interpolation-filters="sRGB">
<feFlood flood-opacity="0" result="BackgroundImageFix"/>
<feColorMatrix in="SourceAlpha" type="matrix" values="0 0 0 0 0 0 0 0 0 0 0 0 0 0 0 0 0 0 127 0" result="hardAlpha"/>
<feOffset dy="5"/>
<feGaussianBlur stdDeviation="10"/>
<feColorMatrix type="matrix" values="0 0 0 0 0 0 0 0 0 0 0 0 0 0 0 0 0 0 0.25 0"/>
<feBlend mode="normal" in2="BackgroundImageFix" result="effect1_dropShadow_617_1434"/>
<feBlend mode="normal" in="SourceGraphic" in2="effect1_dropShadow_617_1434" result="shape"/>
</filter>
<filter id="filter1_d_617_1434" x="151" y="141.833" width="113" height="113" filterUnits="userSpaceOnUse" color-interpolation-filters="sRGB">
<feFlood flood-opacity="0" result="BackgroundImageFix"/>
<feColorMatrix in="SourceAlpha" type="matrix" values="0 0 0 0 0 0 0 0 0 0 0 0 0 0 0 0 0 0 127 0" result="hardAlpha"/>
<feOffset dy="5"/>
<feGaussianBlur stdDeviation="10"/>
<feColorMatrix type="matrix" values="0 0 0 0 0 0 0 0 0 0 0 0 0 0 0 0 0 0 0.25 0"/>
<feBlend mode="normal" in2="BackgroundImageFix" result="effect1_dropShadow_617_1434"/>
<feBlend mode="normal" in="SourceGraphic" in2="effect1_dropShadow_617_1434" result="shape"/>
</filter>
<filter id="filter2_d_617_1434" x="-11.0244" y="16.4878" width="223.488" height="177.049" filterUnits="userSpaceOnUse" color-interpolation-filters="sRGB">
<feFlood flood-opacity="0" result="BackgroundImageFix"/>
<feColorMatrix in="SourceAlpha" type="matrix" values="0 0 0 0 0 0 0 0 0 0 0 0 0 0 0 0 0 0 127 0" result="hardAlpha"/>
<feOffset dy="14.5122"/>
<feGaussianBlur stdDeviation="14.5122"/>
<feComposite in2="hardAlpha" operator="out"/>
<feColorMatrix type="matrix" values="0 0 0 0 0 0 0 0 0 0 0 0 0 0 0 0 0 0 0.06 0"/>
<feBlend mode="normal" in2="BackgroundImageFix" result="effect1_dropShadow_617_1434"/>
<feBlend mode="normal" in="SourceGraphic" in2="effect1_dropShadow_617_1434" result="shape"/>
</filter>
<filter id="filter3_d_617_1434" x="-73.0244" y="225.488" width="223.488" height="177.049" filterUnits="userSpaceOnUse" color-interpolation-filters="sRGB">
<feFlood flood-opacity="0" result="BackgroundImageFix"/>
<feColorMatrix in="SourceAlpha" type="matrix" values="0 0 0 0 0 0 0 0 0 0 0 0 0 0 0 0 0 0 127 0" result="hardAlpha"/>
<feOffset dy="14.5122"/>
<feGaussianBlur stdDeviation="14.5122"/>
<feComposite in2="hardAlpha" operator="out"/>
<feColorMatrix type="matrix" values="0 0 0 0 0 0 0 0 0 0 0 0 0 0 0 0 0 0 0.06 0"/>
<feBlend mode="normal" in2="BackgroundImageFix" result="effect1_dropShadow_617_1434"/>
<feBlend mode="normal" in="SourceGraphic" in2="effect1_dropShadow_617_1434" result="shape"/>
</filter>
<linearGradient id="paint0_linear_617_1434" x1="248.337" y1="233.17" x2="311.03" y2="233.17" gradientUnits="userSpaceOnUse">
<stop stop-color="#D23669"/>
<stop offset="1" stop-color="#8627FF"/>
</linearGradient>
<linearGradient id="paint1_linear_617_1434" x1="248.651" y1="269.742" x2="281.615" y2="269.742" gradientUnits="userSpaceOnUse">
<stop stop-color="#D23669"/>
<stop offset="1" stop-color="#8627FF"/>
</linearGradient>
<linearGradient id="paint2_linear_617_1434" x1="233.651" y1="320.742" x2="266.615" y2="320.742" gradientUnits="userSpaceOnUse">
<stop stop-color="#D23669"/>
<stop offset="1" stop-color="#8627FF"/>
</linearGradient>
<linearGradient id="paint3_linear_617_1434" x1="321.651" y1="223.742" x2="354.615" y2="223.742" gradientUnits="userSpaceOnUse">
<stop stop-color="#D23669"/>
<stop offset="1" stop-color="#8627FF"/>
</linearGradient>
<linearGradient id="paint4_linear_617_1434" x1="301.651" y1="197.742" x2="334.615" y2="197.742" gradientUnits="userSpaceOnUse">
<stop stop-color="#D23669"/>
<stop offset="1" stop-color="#8627FF"/>
</linearGradient>
<linearGradient id="paint5_linear_617_1434" x1="341.651" y1="176.742" x2="374.615" y2="176.742" gradientUnits="userSpaceOnUse">
<stop stop-color="#D23669"/>
<stop offset="1" stop-color="#8627FF"/>
</linearGradient>
<linearGradient id="paint6_linear_617_1434" x1="325.651" y1="141.742" x2="358.615" y2="141.742" gradientUnits="userSpaceOnUse">
<stop stop-color="#D23669"/>
<stop offset="1" stop-color="#8627FF"/>
</linearGradient>
<linearGradient id="paint7_linear_617_1434" x1="310.651" y1="262.742" x2="343.615" y2="262.742" gradientUnits="userSpaceOnUse">
<stop stop-color="#D23669"/>
<stop offset="1" stop-color="#8627FF"/>
</linearGradient>
<linearGradient id="paint8_linear_617_1434" x1="186.984" y1="187.499" x2="228.622" y2="187.499" gradientUnits="userSpaceOnUse">
<stop stop-color="#D23669"/>
<stop offset="1" stop-color="#8627FF"/>
</linearGradient>
<linearGradient id="paint9_linear_617_1434" x1="196.307" y1="180.324" x2="219.267" y2="180.324" gradientUnits="userSpaceOnUse">
<stop stop-color="#D23669"/>
<stop offset="1" stop-color="#8627FF"/>
</linearGradient>
<radialGradient id="paint10_diamond_617_1434" cx="0" cy="0" r="1" gradientUnits="userSpaceOnUse" gradientTransform="translate(257.543 223.249) rotate(129.831) scale(148.341 646.132)">
<stop offset="0.223958" stop-color="#D23669"/>
<stop offset="1" stop-color="#D23669" stop-opacity="0"/>
</radialGradient>
<radialGradient id="paint11_diamond_617_1434" cx="0" cy="0" r="1" gradientUnits="userSpaceOnUse" gradientTransform="translate(263.517 222.416) rotate(129.831) scale(148.341 646.132)">
<stop offset="0.223958" stop-color="#D23669"/>
<stop offset="1" stop-color="#D23669" stop-opacity="0"/>
</radialGradient>
<linearGradient id="paint12_linear_617_1434" x1="7.45818" y1="45.2084" x2="180.902" y2="45.2084" gradientUnits="userSpaceOnUse">
<stop stop-color="#D23669"/>
<stop offset="1" stop-color="#8627FF"/>
</linearGradient>
<linearGradient id="paint13_linear_617_1434" x1="-54.5418" y1="254.208" x2="118.902" y2="254.208" gradientUnits="userSpaceOnUse">
<stop stop-color="#D23669"/>
<stop offset="1" stop-color="#8627FF"/>
</linearGradient>
<linearGradient id="paint14_linear_617_1434" x1="21.2812" y1="63.8248" x2="183.781" y2="63.8248" gradientUnits="userSpaceOnUse">
<stop stop-color="#D23669"/>
<stop offset="1" stop-color="#8627FF"/>
</linearGradient>
<linearGradient id="paint15_linear_617_1434" x1="-40.7188" y1="272.825" x2="121.781" y2="272.825" gradientUnits="userSpaceOnUse">
<stop stop-color="#D23669"/>
<stop offset="1" stop-color="#8627FF"/>
</linearGradient>
<linearGradient id="paint16_linear_617_1434" x1="22.1018" y1="117.466" x2="107.021" y2="117.466" gradientUnits="userSpaceOnUse">
<stop stop-color="#D23669"/>
<stop offset="1" stop-color="#8627FF"/>
</linearGradient>
<linearGradient id="paint17_linear_617_1434" x1="-39.8982" y1="326.466" x2="45.0212" y2="326.466" gradientUnits="userSpaceOnUse">
<stop stop-color="#D23669"/>
<stop offset="1" stop-color="#8627FF"/>
</linearGradient>
<linearGradient id="paint18_linear_617_1434" x1="21.4476" y1="129.436" x2="168.222" y2="129.436" gradientUnits="userSpaceOnUse">
<stop stop-color="#D23669"/>
<stop offset="1" stop-color="#8627FF"/>
</linearGradient>
<linearGradient id="paint19_linear_617_1434" x1="-40.5524" y1="338.436" x2="106.222" y2="338.436" gradientUnits="userSpaceOnUse">
<stop stop-color="#D23669"/>
<stop offset="1" stop-color="#8627FF"/>
</linearGradient>
<linearGradient id="paint20_linear_617_1434" x1="21.4476" y1="138.436" x2="168.222" y2="138.436" gradientUnits="userSpaceOnUse">
<stop stop-color="#D23669"/>
<stop offset="1" stop-color="#8627FF"/>
</linearGradient>
<linearGradient id="paint21_linear_617_1434" x1="-40.5524" y1="347.436" x2="106.222" y2="347.436" gradientUnits="userSpaceOnUse">
<stop stop-color="#D23669"/>
<stop offset="1" stop-color="#8627FF"/>
</linearGradient>
<clipPath id="clip0_617_1434">
<rect width="400" height="400" fill="white"/>
</clipPath>
</defs>
</svg>
